<svg width="64" height="64" viewBox="0 0 270 270" fill="none" xmlns="http://www.w3.org/2000/svg">
  <rect width="270" height="270" rx="30" fill="#242424" style="fill: none"/>
  <g transform="translate(40, 40)">
    <path d="M95 30L170 90L160 125L95 80" fill="#FFF04D"/>
    <path d="M25 40L0 90V130L25 140L50 130V80" fill="#FFF04D"/>
    <path d="M25 40V80L95 30" fill="#FFF04D"/>
    <path d="M25 80V130L60 115V80" fill="#FFF04D"/>
    <path d="M60 80V115L95 130V80" fill="#FFF04D"/>
    <path d="M95 30V80V130L125 140L160 125L170 90" fill="#FFF04D"/>
    <path d="M170 90L95 30L25 80L0 90" fill="#FFF04D"/>
  </g>
</svg>
